<?xml version="1.0" encoding="utf-8"?>
<!-- Generator: Adobe Illustrator 20.0.0, SVG Export Plug-In . SVG Version: 6.00 Build 0)  -->
<svg version="1.1" id="Layer_1" xmlns="http://www.w3.org/2000/svg" xmlns:xlink="http://www.w3.org/1999/xlink" x="0px" y="0px"
	 viewBox="0 0 443.5 100" style="enable-background:new 0 0 443.5 100;" xml:space="preserve">
<style type="text/css">
	.st0{fill:#4D78E4;}
	.st1{fill:#2658BF;}
	.st2{fill:#FFFFFF;}
</style>
<g>
	<path d="M69.1,27.5h27.7L81.6,100H54L69.1,27.5z M98.3,19.7H70.6l4.1-19.4h27.7L98.3,19.7z"/>
	<path d="M11.5,44.5H0l3.8-17H15C19.3,6.1,26.8,0.2,48.5,0.2c4.9,0,9.6,0.4,14.5,0.7l-3.9,18.3c-1.8-0.3-4.2-0.4-7.4-0.4
		c-5.5,0-7.7,2.1-9.1,8.7h14.1l-3.6,17h-14L27.7,100H0L11.5,44.5z"/>
	<path d="M109.3,27.5H136l-2.1,9.2h0.3c5.3-6.6,13.7-11,22.5-11c12.7,0,23.6,5.3,23.6,19.6c0,3.2-0.8,8.5-2,13.8l-8.8,40.9h-27.7
		l7.1-33.3c0.8-4.2,2.2-9.1,2.2-12c0-4.6-3.4-7-7.8-7c-8.8,0-11.7,6.3-13.4,13.8l-8.1,38.4H94.2L109.3,27.5z"/>
	<path d="M234.1,91.5h-0.3c-4.8,6.8-10.6,8.2-19,8.2c-23.3,0-26.9-18.9-26.9-27.7c0-27.5,14.4-46.7,36.1-46.7
		c8.4,0,16.2,2.5,21,10.8L252.5,0h27.7l-20.7,99.8h-27.1L234.1,91.5z M240.2,59c0-8.1-2.8-13.4-9.9-13.4c-11,0-14.7,13.6-14.7,24
		c0,6.6,2.9,11.9,10.2,11.9C236.6,81.5,240.2,67.6,240.2,59z"/>
</g>
<g>
	<path d="M379.8,25.6h-46.4L338.7,0h104.8l-5.3,25.6h-27.7l-14.7,74.2h-31.4L379.8,25.6z"/>
	<g>
		<path class="st0" d="M292.6,0H342c18.3,0,30.2,10.1,30.2,32.1c0,20.1-16.9,37.4-43.2,37.4h-20.7l-36.6,30.2l0,0L292.6,0z"/>
		<path class="st1" d="M271.8,99.7l34.6-75.6c5.9-12.8,22.5-16.1,32.8-6.5l0,0c9.3,8.7,8.6,23.7-1.5,31.5L271.8,99.7z"/>
		<circle class="st2" cx="325.1" cy="32.6" r="8.2"/>
	</g>
</g>
</svg>
