<?xml version="1.0" encoding="utf-8"?>
<!-- Generator: Adobe Illustrator 20.0.0, SVG Export Plug-In . SVG Version: 6.00 Build 0)  -->
<svg version="1.1" id="Layer_1" xmlns="http://www.w3.org/2000/svg" xmlns:xlink="http://www.w3.org/1999/xlink" x="0px" y="0px"
	 viewBox="0 0 100 100" style="enable-background:new 0 0 100 100;" xml:space="preserve">
<path d="M61.4,87.4v2.9c0,2.3-1.7,4.3-3.9,4.6l-0.7,2.7c-0.4,1.4-1.7,2.4-3.2,2.4h-7.1c-1.5,0-2.8-1-3.2-2.4l-0.7-2.7
	c-2.2-0.3-3.9-2.3-3.9-4.6v-2.9c0-1.6,1.3-2.8,2.8-2.8h17.2C60.1,84.6,61.4,85.8,61.4,87.4z M74.6,48c0,6.6-2.6,12.7-6.9,17.1
	c-3.3,3.4-5.3,7.7-6,12.3c-0.3,2-2,3.4-4,3.4H42.3c-2,0-3.7-1.4-4-3.4c-0.7-4.6-2.8-9-6.1-12.3c-4.2-4.4-6.8-10.3-6.9-16.8
	c-0.1-13.7,10.8-24.8,24.5-24.9C63.5,23.3,74.6,34.3,74.6,48z M52.8,33.1c0-1.5-1.2-2.8-2.8-2.8c-9.8,0-17.8,8-17.8,17.8
	c0,1.5,1.2,2.8,2.8,2.8c1.5,0,2.8-1.2,2.8-2.8c0-6.7,5.5-12.2,12.2-12.2C51.5,35.9,52.8,34.6,52.8,33.1z M50,15.3
	c1.5,0,2.8-1.2,2.8-2.8V2.8C52.8,1.3,51.5,0,50,0c-1.5,0-2.8,1.2-2.8,2.8v9.7C47.2,14.1,48.5,15.3,50,15.3z M17.3,48
	c0-1.5-1.2-2.8-2.8-2.8H4.8C3.3,45.2,2,46.4,2,48c0,1.5,1.2,2.8,2.8,2.8h9.7C16.1,50.8,17.3,49.5,17.3,48z M95.2,45.2h-9.7
	c-1.5,0-2.8,1.2-2.8,2.8c0,1.5,1.2,2.8,2.8,2.8h9.7c1.5,0,2.8-1.2,2.8-2.8C98,46.5,96.7,45.2,95.2,45.2z M23,71.1L16.1,78
	c-1.1,1.1-1.1,2.8,0,3.9c0.5,0.5,1.3,0.8,2,0.8c0.7,0,1.4-0.3,2-0.8l6.9-6.9c1.1-1.1,1.1-2.8,0-3.9C25.8,70,24,70,23,71.1z
	 M75.1,25.7c0.7,0,1.4-0.3,2-0.8l6.9-6.9c1.1-1.1,1.1-2.8,0-3.9c-1.1-1.1-2.8-1.1-3.9,0l-6.9,6.9c-1.1,1.1-1.1,2.8,0,3.9
	C73.7,25.4,74.4,25.7,75.1,25.7z M23,24.9c0.5,0.5,1.3,0.8,2,0.8c0.7,0,1.4-0.3,2-0.8c1.1-1.1,1.1-2.8,0-3.9L20,14
	c-1.1-1.1-2.8-1.1-3.9,0c-1.1,1.1-1.1,2.8,0,3.9L23,24.9z M77,71.1c-1.1-1.1-2.8-1.1-3.9,0C72,72.2,72,74,73.1,75l6.9,6.9
	c0.5,0.5,1.3,0.8,2,0.8c0.7,0,1.4-0.3,2-0.8c1.1-1.1,1.1-2.8,0-3.9L77,71.1z"/>
</svg>
