<?xml version="1.0" encoding="utf-8"?>
<!-- Generator: Adobe Illustrator 20.0.0, SVG Export Plug-In . SVG Version: 6.00 Build 0)  -->
<svg version="1.1" id="Layer_1" xmlns="http://www.w3.org/2000/svg" xmlns:xlink="http://www.w3.org/1999/xlink" x="0px" y="0px"
	 viewBox="0 0 100 100" style="enable-background:new 0 0 100 100;" xml:space="preserve">
<g>
	<g>
		<path d="M4.3,28.8L4.5,29c6.8,6.6,14.1,12.6,21.9,18.1l3,2.1c2.4,2,6.1,0.3,6.1-2.8V33.6c1.9,0.1,3.7,0.2,5.6,0.3
			c8.9,0.5,17.8,1,26.8,1.5c5.7,0.3,11.4,0.7,17.1,1c2,0.1,3.9-0.1,5.7-1c5.2-2.3,7.8-7.7,6.4-13.2c-1.3-5.3-6.4-8.9-12.2-8.5
			c-3.7,0.2-7.4,0.5-11.1,0.7c-12.8,0.7-25.6,1.4-38.4,2V3.7c0-3.1-3.6-4.8-6.1-2.8l-2.9,2.1C18.6,8.4,11.2,14.5,4.3,21.2
			C1.9,23.2,1.9,26.8,4.3,28.8z M95.7,71.2L95.5,71C88.7,64.5,81.4,58.4,73.7,53l-3-2.1c-2.4-2-6.1-0.3-6.1,2.8v12.8
			c-1.9-0.1-3.7-0.2-5.6-0.3c-8.9-0.5-17.8-1-26.8-1.5c-5.7-0.3-11.4-0.7-17.1-1c-2-0.1-3.9,0.1-5.7,1C4.1,67,1.5,72.4,2.9,77.8
			c1.3,5.3,6.4,8.9,12.2,8.5c3.7-0.2,7.4-0.5,11.1-0.7c12.8-0.7,25.6-1.4,38.4-2v12.7c0,3.1,3.6,4.8,6.1,2.8l2.9-2.1
			c7.8-5.5,15.2-11.6,22.1-18.3C98.1,76.8,98.1,73.1,95.7,71.2z"/>
	</g>
</g>
</svg>
