<?xml version="1.0" encoding="utf-8"?>
<!-- Generator: Adobe Illustrator 20.0.0, SVG Export Plug-In . SVG Version: 6.00 Build 0)  -->
<svg version="1.1" id="Layer_1" xmlns="http://www.w3.org/2000/svg" xmlns:xlink="http://www.w3.org/1999/xlink" x="0px" y="0px"
	 viewBox="0 0 100 100" style="enable-background:new 0 0 100 100;" xml:space="preserve">
<g>
	<g>
		<path d="M91.3,72.4L91.3,72.4c-3-2.5-6.3-4.7-9.5-6.9c-6.4-4.5-12.2-4.8-17,2.4c-2.7,4.1-6.4,4.2-10.3,2.5
			c-10.8-4.9-19.1-12.5-24-23.5c-2.2-4.9-2.1-9.2,2.9-12.7c2.7-1.8,5.4-4,5.2-7.9C38.3,21,25.7,3.7,20.8,1.9c-2.1-0.8-4.1-0.7-6.2,0
			C2.9,5.8-1.9,15.4,2.7,26.7c13.8,33.9,38,57.4,71.3,71.8c1.9,0.8,4,1.1,5.1,1.4c7.6,0.1,16.5-7.3,19.1-14.5
			C100.7,78.5,95.4,75.7,91.3,72.4z M53.9,5.4c24.4,3.8,35.6,15.4,38.7,40c0.3,2.3-0.6,5.7,2.7,5.8c3.4,0.1,2.6-3.3,2.6-5.6
			C98.2,22.3,78,0.9,54.6,0.1c-1.8,0.3-5.4-1.2-5.6,2.7C48.8,5.5,51.9,5,53.9,5.4z M58.7,12.1c-2.3-0.3-5.4-1.4-6,1.9
			c-0.6,3.4,2.9,3.1,5.1,3.6c15.1,3.4,20.3,8.9,22.8,23.8c0.4,2.2-0.4,5.6,3.3,5c2.7-0.4,1.8-3.3,2-5C86,27,73.7,13.9,58.7,12.1z
			 M60.1,23.9c-1.6,0-3.1,0.2-3.7,1.9c-0.9,2.5,1,3.1,2.8,3.4c6.2,1,9.4,4.6,10,10.8c0.2,1.7,1.2,3,2.8,2.8c2.2-0.3,2.4-2.3,2.4-4.2
			C74.6,31.7,66.7,23.7,60.1,23.9z"/>
	</g>
</g>
</svg>
