<?xml version="1.0" encoding="utf-8"?>
<!-- Generator: Adobe Illustrator 20.0.0, SVG Export Plug-In . SVG Version: 6.00 Build 0)  -->
<svg version="1.1" id="Layer_1" xmlns="http://www.w3.org/2000/svg" xmlns:xlink="http://www.w3.org/1999/xlink" x="0px" y="0px"
	 viewBox="0 0 100 100" style="enable-background:new 0 0 100 100;" xml:space="preserve">
<g>
	<g>
		<path d="M13,74.1c-7.2,0-13,5.8-13,13c0,7.2,5.8,13,13,13c7.2,0,13-5.8,13-13C25.9,79.9,20.1,74.1,13,74.1z M50,74.1
			c-7.2,0-13,5.8-13,13c0,7.2,5.8,13,13,13s13-5.8,13-13C63,79.9,57.2,74.1,50,74.1z M87,74.1c-7.2,0-13,5.8-13,13
			c0,7.2,5.8,13,13,13c7.2,0,13-5.8,13-13C100,79.9,94.2,74.1,87,74.1z M13,37C5.8,37,0,42.8,0,50c0,7.2,5.8,13,13,13
			c7.2,0,13-5.8,13-13C25.9,42.8,20.1,37,13,37z M50,37c-7.2,0-13,5.8-13,13c0,7.2,5.8,13,13,13s13-5.8,13-13C63,42.8,57.2,37,50,37
			z M87,37c-7.2,0-13,5.8-13,13c0,7.2,5.8,13,13,13c7.2,0,13-5.8,13-13C100,42.8,94.2,37,87,37z M13,0C5.8,0,0,5.8,0,13
			c0,7.2,5.8,13,13,13c7.2,0,13-5.8,13-13C25.9,5.8,20.1,0,13,0z M50,0c-7.2,0-13,5.8-13,13c0,7.2,5.8,13,13,13s13-5.8,13-13
			C63,5.8,57.2,0,50,0z M87,25.9c7.2,0,13-5.8,13-13c0-7.2-5.8-13-13-13c-7.2,0-13,5.8-13,13C74.1,20.1,79.9,25.9,87,25.9z"/>
	</g>
</g>
</svg>
