<?xml version="1.0" encoding="utf-8"?>
<!-- Generator: Adobe Illustrator 20.0.0, SVG Export Plug-In . SVG Version: 6.00 Build 0)  -->
<svg version="1.1" id="Layer_1" xmlns="http://www.w3.org/2000/svg" xmlns:xlink="http://www.w3.org/1999/xlink" x="0px" y="0px"
	 viewBox="0 0 100 100" style="enable-background:new 0 0 100 100;" xml:space="preserve">
<g>
	<g>
		<path d="M95.3,33.3H4.7c-4.6,0-4.8,2.4-4.6,5.3l3.4,47.6c0.2,2.9,0.9,5.3,5.5,5.3h82.3c4.7,0,5.2-2.4,5.5-5.3l3.2-48.2
			C100.2,35.2,99.9,33.3,95.3,33.3z M94.3,20.7c-0.1-3.2-1.2-4-3.9-4c0,0-31.6,0-37.3,0c-5.7,0-6.4,0.1-10.7-4.5
			c-3.6-3.9-2.2-3.8-9.5-3.8c-5.9,0-19.6,0-19.6,0c-4.5,0-6.1-0.4-6.6,4.3C6.3,17,5.4,27.6,5.3,29.2h89.4L94.3,20.7z"/>
	</g>
</g>
</svg>
