<?xml version="1.0" encoding="utf-8"?>
<!-- Generator: Adobe Illustrator 20.0.0, SVG Export Plug-In . SVG Version: 6.00 Build 0)  -->
<svg version="1.1" id="Layer_1" xmlns="http://www.w3.org/2000/svg" xmlns:xlink="http://www.w3.org/1999/xlink" x="0px" y="0px"
	 viewBox="0 0 100 100" style="enable-background:new 0 0 100 100;" xml:space="preserve">
<g>
	<g>
		<path d="M86.9,44.9L82,38.3c-0.3-0.4-0.3-1,0-1.4l4.8-6.7c0.4-0.6,0.2-1.5-0.4-1.8l-7.3-3.9c-0.5-0.2-0.7-0.8-0.6-1.3l1.4-8.1
			c0.1-0.7-0.4-1.4-1.2-1.4l-8.3-0.3c-0.5,0-1-0.4-1.1-0.9l-2.3-7.9c-0.2-0.7-1-1.1-1.7-0.8l-7.6,3.3c-0.5,0.2-1.1,0.1-1.4-0.3
			l-5.5-6.1c-0.5-0.5-1.4-0.5-1.9,0l-5.4,6.2C43,7,42.4,7.2,41.9,7l-7.7-3.1c-0.7-0.3-1.5,0.1-1.7,0.8l-2.2,7.9
			c-0.1,0.5-0.6,0.9-1.1,0.9L21,14c-0.8,0-1.3,0.7-1.2,1.5l1.5,8.1c0.1,0.5-0.2,1.1-0.6,1.3l-7.2,4c-0.7,0.4-0.8,1.2-0.4,1.8
			l4.9,6.7c0.3,0.4,0.3,1,0,1.4l-4.8,6.7c-0.4,0.6-0.2,1.5,0.4,1.8l7.3,3.9c0.5,0.2,0.7,0.8,0.6,1.3l-1.4,8.1
			c-0.1,0.7,0.4,1.4,1.2,1.4l8.3,0.3c0.5,0,1,0.4,1.1,0.9l2.3,7.9c0.2,0.7,1,1.1,1.7,0.8l7.6-3.3c0.5-0.2,1.1-0.1,1.4,0.3l5.5,6.1
			c0.5,0.5,1.4,0.5,1.9,0l5.4-6.2c0.3-0.4,0.9-0.5,1.4-0.3l7.7,3.1c0.7,0.3,1.5-0.1,1.7-0.8l2.2-7.9c0.1-0.5,0.6-0.9,1.1-0.9
			l8.3-0.5c0.8,0,1.3-0.7,1.2-1.5L78.7,52c-0.1-0.5,0.2-1.1,0.6-1.3l7.2-4C87.2,46.4,87.4,45.5,86.9,44.9z M50,60.1
			c-12.4,0-22.5-10-22.5-22.3c0-12.3,10.1-22.3,22.5-22.3s22.5,10,22.5,22.3C72.5,50.1,62.4,60.1,50,60.1z M70.2,74.6
			c-1.2,1.2-2.8,1.9-4.6,1.9c-0.6,0-1.3-0.1-1.9-0.3l-5.3-1.6l-4.1,3.7c-0.1,0.1-0.3,0.2-0.4,0.3l6.5,20.2c0.2,0.7,1.1,0.9,1.6,0.3
			l4.8-6.1c0.2-0.3,0.6-0.4,1-0.3l7.4,2.2c0.7,0.2,1.4-0.5,1.1-1.2L70.2,74.6z M41.6,74.6l-5.3,1.6c-0.6,0.2-1.2,0.3-1.9,0.3
			c-1.8,0-3.4-0.7-4.6-1.9l-6.2,19.2c-0.2,0.7,0.4,1.4,1.1,1.2l7.4-2.2c0.4-0.1,0.8,0,1,0.3l4.8,6.1c0.5,0.6,1.4,0.4,1.6-0.3
			L46,78.7c-0.1-0.1-0.3-0.2-0.4-0.3L41.6,74.6z M63.3,32.2l-8.5-0.6l-3.2-7.8c-0.6-1.5-2.7-1.5-3.3,0l-3.2,7.8l-8.5,0.6
			c-1.6,0.1-2.2,2.1-1,3.1l6.5,5.5l-2,8.2c-0.4,1.5,1.3,2.8,2.7,1.9l7.2-4.5l7.2,4.5c1.4,0.8,3-0.4,2.7-1.9l-2-8.2l6.5-5.5
			C65.6,34.3,64.9,32.3,63.3,32.2z"/>
	</g>
</g>
</svg>
